# xmcd
#
# Track frame offsets:
#	150
#	20031
#	43562
#
# Disc length: 789 seconds
#
# Revision: 1
# Processed by: cddbd v1.5.1PL0 Copyright (c) Steve Scherf et al.
# Submitted via: CDex 1.50Beta5
#
DISCID=1e031303
DTITLE=伊藤賢一 - "I"Novel ~Page1~
DYEAR=1900
DGENRE=Rock
TTITLE0=Don't Stop The Radio
TTITLE1=Masque-Rade
TTITLE2=Solitude
EXTD=
EXTT0=
EXTT1=
EXTT2=
PLAYORDER=
